<svg version="1.1" id="Layer_1" xmlns="http://www.w3.org/2000/svg" xmlns:xlink="http://www.w3.org/1999/xlink" x="0px" y="0px"
	 width="100%" viewBox="0 0 512 512" enable-background="new 0 0 512 512" xml:space="preserve">
<path fill="#000000" opacity="1.000000" stroke="none" 
	d="
M293.000000,513.000000 
	C269.312439,513.000000 245.624878,513.000000 221.390533,512.658752 
	C215.397324,509.322144 212.424515,504.610535 210.986801,498.656250 
	C206.724472,481.003998 202.381668,463.370850 197.939194,445.763306 
	C197.649139,444.613678 196.446472,443.288971 195.339539,442.817352 
	C188.718231,439.996277 181.552811,438.156372 175.435471,434.528015 
	C168.726166,430.548584 163.026001,429.659058 156.985870,434.993805 
	C156.504868,435.418640 155.948090,435.767822 155.394730,436.099060 
	C144.644409,442.534485 133.976288,449.113770 123.105911,455.339874 
	C115.365967,459.773010 108.603142,458.979553 102.725906,453.166748 
	C88.635536,439.230988 74.647110,425.191772 60.667301,411.144806 
	C56.512615,406.970093 54.261742,398.902435 57.932354,392.939453 
	C66.187302,379.529083 74.139519,365.930603 82.057640,352.317169 
	C82.971748,350.745575 83.725975,348.265350 83.134758,346.766296 
	C79.315895,337.083344 75.137321,327.540771 70.959259,318.003601 
	C70.584351,317.147827 69.468468,316.286011 68.539818,316.053497 
	C56.222477,312.968933 43.753803,310.419373 31.575562,306.869507 
	C20.798416,303.728027 8.130828,304.317505 1.000000,293.000000 
	C1.000000,269.312439 1.000000,245.624878 1.341250,221.390533 
	C4.678006,215.396667 9.390453,212.424438 15.345142,210.986725 
	C32.998817,206.724426 50.633404,202.381561 68.242279,197.938705 
	C69.391418,197.648773 70.706123,196.443268 71.188499,195.334915 
	C74.574234,187.555496 77.894798,179.740250 80.902397,171.809860 
	C81.522018,170.176071 81.375282,167.635132 80.501289,166.146820 
	C71.793610,151.318634 62.768955,136.676926 54.022034,121.871346 
	C48.635529,112.753822 50.185047,106.906113 56.765465,99.943695 
	C69.459297,86.512985 82.762993,73.656395 95.885559,60.634037 
	C103.568726,53.009541 111.817322,53.729443 117.168571,56.828442 
	C132.325165,65.605888 147.243454,74.794266 162.319107,83.713470 
	C163.273712,84.278244 164.956528,84.364372 165.987915,83.930298 
	C175.880219,79.766945 185.721848,75.481018 195.524292,71.109787 
	C196.529495,70.661537 197.672501,69.552116 197.928284,68.541191 
	C201.042953,56.230637 203.580002,43.757633 207.130539,31.578545 
	C210.272537,20.800781 209.681885,8.131805 221.000000,1.000000 
	C244.687561,1.000000 268.375122,1.000000 292.609436,1.341246 
	C298.601318,4.676960 301.582916,9.385160 303.011230,15.340141 
	C307.283844,33.153690 311.639893,50.947422 316.063354,68.724014 
	C316.284119,69.611244 317.305084,70.585289 318.192566,70.976624 
	C327.424957,75.047539 336.679565,79.072495 346.010010,82.910774 
	C347.112274,83.364204 348.934784,83.019608 350.035858,82.378906 
	C364.474518,73.977333 378.887451,65.529236 393.209076,56.929981 
	C399.343536,53.246586 408.371613,54.821640 413.336395,59.818237 
	C426.950195,73.519264 440.697998,87.087479 454.272156,100.827408 
	C459.802124,106.424934 460.608002,115.441940 456.647156,121.881912 
	C448.142548,135.709595 439.633911,149.535583 431.293793,163.462219 
	C430.570312,164.670288 430.550842,166.837036 431.106445,168.187302 
	C434.883942,177.367950 438.862915,186.467087 442.902405,195.536606 
	C443.349182,196.539719 444.466003,197.673828 445.478790,197.930054 
	C457.786194,201.043686 470.255249,203.582214 482.431610,207.130493 
	C493.207245,210.270599 505.871216,209.684692 513.000000,221.000000 
	C513.000000,244.687561 513.000000,268.375122 512.658752,292.609467 
	C509.323364,298.601227 504.613098,301.574799 498.661133,303.012665 
	C481.014465,307.275665 463.386536,311.617981 445.784027,316.059082 
	C444.632660,316.349518 443.314301,317.536652 442.823486,318.640228 
	C438.921356,327.413849 435.144806,336.245178 431.495087,345.126740 
	C431.037170,346.241028 431.076050,348.025391 431.671295,349.036041 
	C439.579193,362.462799 447.659149,375.788025 455.630096,389.177917 
	C460.933899,398.087402 460.715515,405.617554 453.068390,413.368958 
	C440.323273,426.287994 427.469299,439.100616 414.580200,451.876312 
	C407.565399,458.829468 401.339661,460.007874 392.722290,455.151245 
	C379.435577,447.663086 366.495026,439.562561 353.279053,431.944916 
	C351.462585,430.897888 348.556702,430.223969 346.754456,430.922760 
	C337.205597,434.625153 327.830658,438.781464 318.450226,442.905121 
	C317.450073,443.344757 316.325775,444.472412 316.069427,445.485901 
	C312.956604,457.792114 310.417328,470.259613 306.869507,482.434723 
	C303.729645,493.209564 304.314636,505.872223 293.000000,513.000000 
M167.527084,203.976639 
	C159.256195,216.433914 154.543365,230.419022 153.273056,245.015289 
	C151.901199,260.778503 153.036148,276.460480 158.748993,291.848663 
	C166.613342,313.032196 179.413956,330.095001 197.694382,342.837036 
	C221.167999,359.198822 247.672180,364.773193 275.598511,359.742004 
	C300.125366,355.323181 320.871002,343.259216 336.978699,323.627991 
	C356.762604,299.516388 364.189270,272.183441 360.036346,241.415527 
	C357.226379,220.597427 348.213287,202.616364 334.479889,187.177429 
	C321.200592,172.248978 304.561829,162.200150 285.226501,156.567841 
	C269.448517,151.971771 253.449539,151.627777 237.556381,154.369034 
	C221.390137,157.157440 206.669403,164.137054 193.607056,174.137909 
	C183.157776,182.138138 174.236893,191.622406 167.527084,203.976639 
z"/>
<path fill="#FFFFFF" opacity="1.000000" stroke="none" 
	d="
M1.000000,293.468658 
	C8.130828,304.317505 20.798416,303.728027 31.575562,306.869507 
	C43.753803,310.419373 56.222477,312.968933 68.539818,316.053497 
	C69.468468,316.286011 70.584351,317.147827 70.959259,318.003601 
	C75.137321,327.540771 79.315895,337.083344 83.134758,346.766296 
	C83.725975,348.265350 82.971748,350.745575 82.057640,352.317169 
	C74.139519,365.930603 66.187302,379.529083 57.932354,392.939453 
	C54.261742,398.902435 56.512615,406.970093 60.667301,411.144806 
	C74.647110,425.191772 88.635536,439.230988 102.725906,453.166748 
	C108.603142,458.979553 115.365967,459.773010 123.105911,455.339874 
	C133.976288,449.113770 144.644409,442.534485 155.394730,436.099060 
	C155.948090,435.767822 156.504868,435.418640 156.985870,434.993805 
	C163.026001,429.659058 168.726166,430.548584 175.435471,434.528015 
	C181.552811,438.156372 188.718231,439.996277 195.339539,442.817352 
	C196.446472,443.288971 197.649139,444.613678 197.939194,445.763306 
	C202.381668,463.370850 206.724472,481.003998 210.986801,498.656250 
	C212.424515,504.610535 215.397324,509.322144 220.921875,512.658752 
	C147.739639,513.000000 74.479271,513.000000 1.000000,513.000000 
	C1.000000,439.979248 1.000000,366.958282 1.000000,293.468658 
z"/>
<path fill="#FFFFFF" opacity="1.000000" stroke="none" 
	d="
M293.468658,513.000000 
	C304.314636,505.872223 303.729645,493.209564 306.869507,482.434723 
	C310.417328,470.259613 312.956604,457.792114 316.069427,445.485901 
	C316.325775,444.472412 317.450073,443.344757 318.450226,442.905121 
	C327.830658,438.781464 337.205597,434.625153 346.754456,430.922760 
	C348.556702,430.223969 351.462585,430.897888 353.279053,431.944916 
	C366.495026,439.562561 379.435577,447.663086 392.722290,455.151245 
	C401.339661,460.007874 407.565399,458.829468 414.580200,451.876312 
	C427.469299,439.100616 440.323273,426.287994 453.068390,413.368958 
	C460.715515,405.617554 460.933899,398.087402 455.630096,389.177917 
	C447.659149,375.788025 439.579193,362.462799 431.671295,349.036041 
	C431.076050,348.025391 431.037170,346.241028 431.495087,345.126740 
	C435.144806,336.245178 438.921356,327.413849 442.823486,318.640228 
	C443.314301,317.536652 444.632660,316.349518 445.784027,316.059082 
	C463.386536,311.617981 481.014465,307.275665 498.661133,303.012665 
	C504.613098,301.574799 509.323364,298.601227 512.658752,293.078125 
	C513.000000,366.260345 513.000000,439.520721 513.000000,513.000000 
	C439.979248,513.000000 366.958282,513.000000 293.468658,513.000000 
z"/>
<path fill="#FFFFFF" opacity="1.000000" stroke="none" 
	d="
M513.000000,220.531342 
	C505.871216,209.684692 493.207245,210.270599 482.431610,207.130493 
	C470.255249,203.582214 457.786194,201.043686 445.478790,197.930054 
	C444.466003,197.673828 443.349182,196.539719 442.902405,195.536606 
	C438.862915,186.467087 434.883942,177.367950 431.106445,168.187302 
	C430.550842,166.837036 430.570312,164.670288 431.293793,163.462219 
	C439.633911,149.535583 448.142548,135.709595 456.647156,121.881912 
	C460.608002,115.441940 459.802124,106.424934 454.272156,100.827408 
	C440.697998,87.087479 426.950195,73.519264 413.336395,59.818237 
	C408.371613,54.821640 399.343536,53.246586 393.209076,56.929981 
	C378.887451,65.529236 364.474518,73.977333 350.035858,82.378906 
	C348.934784,83.019608 347.112274,83.364204 346.010010,82.910774 
	C336.679565,79.072495 327.424957,75.047539 318.192566,70.976624 
	C317.305084,70.585289 316.284119,69.611244 316.063354,68.724014 
	C311.639893,50.947422 307.283844,33.153690 303.011230,15.340141 
	C301.582916,9.385160 298.601318,4.676960 293.078125,1.341246 
	C366.260345,1.000000 439.520721,1.000000 513.000000,1.000000 
	C513.000000,74.020752 513.000000,147.041718 513.000000,220.531342 
z"/>
<path fill="#FFFFFF" opacity="1.000000" stroke="none" 
	d="
M220.531342,1.000000 
	C209.681885,8.131805 210.272537,20.800781 207.130539,31.578545 
	C203.580002,43.757633 201.042953,56.230637 197.928284,68.541191 
	C197.672501,69.552116 196.529495,70.661537 195.524292,71.109787 
	C185.721848,75.481018 175.880219,79.766945 165.987915,83.930298 
	C164.956528,84.364372 163.273712,84.278244 162.319107,83.713470 
	C147.243454,74.794266 132.325165,65.605888 117.168571,56.828442 
	C111.817322,53.729443 103.568726,53.009541 95.885559,60.634037 
	C82.762993,73.656395 69.459297,86.512985 56.765465,99.943695 
	C50.185047,106.906113 48.635529,112.753822 54.022034,121.871346 
	C62.768955,136.676926 71.793610,151.318634 80.501289,166.146820 
	C81.375282,167.635132 81.522018,170.176071 80.902397,171.809860 
	C77.894798,179.740250 74.574234,187.555496 71.188499,195.334915 
	C70.706123,196.443268 69.391418,197.648773 68.242279,197.938705 
	C50.633404,202.381561 32.998817,206.724426 15.345142,210.986725 
	C9.390453,212.424438 4.678006,215.396667 1.341250,220.921875 
	C1.000000,147.739624 1.000000,74.479256 1.000000,1.000000 
	C74.020752,1.000000 147.041718,1.000000 220.531342,1.000000 
z"/>
<path fill="#FFFFFF" opacity="1.000000" stroke="none" 
	d="
M167.746674,203.667999 
	C174.236893,191.622406 183.157776,182.138138 193.607056,174.137909 
	C206.669403,164.137054 221.390137,157.157440 237.556381,154.369034 
	C253.449539,151.627777 269.448517,151.971771 285.226501,156.567841 
	C304.561829,162.200150 321.200592,172.248978 334.479889,187.177429 
	C348.213287,202.616364 357.226379,220.597427 360.036346,241.415527 
	C364.189270,272.183441 356.762604,299.516388 336.978699,323.627991 
	C320.871002,343.259216 300.125366,355.323181 275.598511,359.742004 
	C247.672180,364.773193 221.167999,359.198822 197.694382,342.837036 
	C179.413956,330.095001 166.613342,313.032196 158.748993,291.848663 
	C153.036148,276.460480 151.901199,260.778503 153.273056,245.015289 
	C154.543365,230.419022 159.256195,216.433914 167.746674,203.667999 
z"/>
</svg>